<?xml version="1.0" encoding="UTF-8" standalone="no"?>
<svg xmlns="http://www.w3.org/2000/svg" width="1600" height="741" viewBox="0 0 1600 741">
<path d="M 802 402 L 799 404 L 780 403 L 780 389 L 776 378 L 786 379 L 792 389 L 800 394 Z M 432 424 L 430 426 L 423 426 L 423 422 L 415 416 L 401 416 L 394 420 L 389 420 L 384 413 L 388 407 L 422 412 L 430 418 Z M 750 568 L 743 569 L 727 564 L 722 550 L 710 544 L 698 528 L 697 522 L 701 522 L 719 532 L 726 547 L 742 546 L 748 548 L 752 552 Z M 1490 602 L 1456 609 L 1398 584 L 1368 531 L 1308 458 L 1260 375 L 1221 330 L 1225 298 L 1212 274 L 1215 252 L 1260 279 L 1298 333 L 1389 364 L 1379 239 L 1396 228 L 1406 202 L 1434 278 L 1457 384 L 1505 421 L 1503 428 L 1472 422 L 1462 459 L 1448 450 L 1431 454 L 1442 494 L 1472 520 L 1463 521 L 1466 543 L 1437 569 L 1437 581 L 1447 583 L 1456 603 L 1474 604 L 1483 594 Z M 1409 499 L 1411 495 L 1410 462 L 1414 455 L 1414 442 L 1408 436 L 1403 422 L 1397 416 L 1381 409 L 1353 400 L 1338 400 L 1337 413 L 1353 434 L 1386 490 L 1396 499 Z M 968 612 L 895 536 L 775 211 L 955 298 L 970 295 L 963 242 L 1056 340 L 1140 372 L 1129 241 L 1152 232 L 1156 197 L 1201 394 L 1247 432 L 1215 444 L 1233 588 L 1203 571 L 1207 540 L 1185 496 L 1167 492 L 1153 418 L 1083 405 L 1148 508 L 1134 540 L 1184 567 L 1188 603 L 1137 566 L 979 339 L 861 301 Z M 1180 425 L 1193 425 L 1196 421 L 1196 408 L 1193 404 L 1180 405 L 1177 410 L 1177 422 Z M 1174 452 L 1186 452 L 1190 448 L 1190 436 L 1186 431 L 1173 431 L 1170 434 L 1170 447 Z M 604 628 L 541 642 L 518 641 L 509 637 L 509 624 L 498 604 L 497 590 L 499 584 L 505 579 L 522 576 L 529 572 L 529 559 L 519 542 L 508 533 L 508 528 L 513 528 L 521 519 L 523 500 L 534 501 L 546 509 L 571 515 L 598 534 L 615 550 L 623 566 L 621 592 L 624 601 L 619 612 Z M 770 376 L 675 356 L 666 413 L 628 418 L 577 367 L 546 438 L 484 405 L 436 329 L 284 253 L 302 333 L 275 351 L 291 380 L 312 365 L 369 403 L 351 439 L 452 439 L 468 413 L 449 406 L 477 406 L 487 437 L 521 428 L 438 473 L 499 522 L 357 463 L 385 563 L 358 599 L 396 611 L 412 569 L 469 604 L 465 634 L 409 657 L 321 599 L 317 553 L 248 580 L 154 525 L 299 538 L 242 373 L 205 365 L 237 355 L 217 215 L 104 119 L 167 139 L 193 94 L 248 158 L 529 306 L 543 285 L 505 209 L 687 348 L 711 338 L 699 252 L 732 178 Z" fill="#FFFFFF" fill-rule="evenodd"/>
</svg>
